<svg width="127" height="27" viewBox="0 0 127 27" fill="none" xmlns="http://www.w3.org/2000/svg">
<path d="M9.43 26.245C7.82 26.245 6.37333 25.965 5.09 25.405C3.83 24.8217 2.83833 24.0283 2.115 23.025C1.39167 21.9983 1.01833 20.82 0.995 19.49H4.39C4.50667 20.6333 4.97333 21.6017 5.79 22.395C6.63 23.165 7.84333 23.55 9.43 23.55C10.9467 23.55 12.1367 23.1767 13 22.43C13.8867 21.66 14.33 20.68 14.33 19.49C14.33 18.5567 14.0733 17.7983 13.56 17.215C13.0467 16.6317 12.405 16.1883 11.635 15.885C10.865 15.5817 9.82667 15.255 8.52 14.905C6.91 14.485 5.615 14.065 4.635 13.645C3.67833 13.225 2.85 12.5717 2.15 11.685C1.47333 10.775 1.135 9.56167 1.135 8.045C1.135 6.715 1.47333 5.53667 2.15 4.51C2.82667 3.48333 3.77167 2.69 4.985 2.13C6.22167 1.57 7.63333 1.29 9.22 1.29C11.5067 1.29 13.3733 1.86167 14.82 3.005C16.29 4.14833 17.1183 5.665 17.305 7.555H13.805C13.6883 6.62167 13.1983 5.805 12.335 5.105C11.4717 4.38167 10.3283 4.02 8.905 4.02C7.575 4.02 6.49 4.37 5.65 5.07C4.81 5.74667 4.39 6.70333 4.39 7.94C4.39 8.82667 4.635 9.55 5.125 10.11C5.63833 10.67 6.25667 11.1017 6.98 11.405C7.72667 11.685 8.765 12.0117 10.095 12.385C11.705 12.8283 13 13.2717 13.98 13.715C14.96 14.135 15.8 14.8 16.5 15.71C17.2 16.5967 17.55 17.81 17.55 19.35C17.55 20.54 17.235 21.66 16.605 22.71C15.975 23.76 15.0417 24.6117 13.805 25.265C12.5683 25.9183 11.11 26.245 9.43 26.245ZM31.757 6.47C33.2037 6.47 34.5103 6.785 35.677 7.415C36.8437 8.02167 37.7537 8.94333 38.407 10.18C39.0837 11.4167 39.422 12.9217 39.422 14.695V26H36.272V15.15C36.272 13.2367 35.7937 11.7783 34.837 10.775C33.8803 9.74833 32.5737 9.235 30.917 9.235C29.237 9.235 27.8953 9.76 26.892 10.81C25.912 11.86 25.422 13.3883 25.422 15.395V26H22.237V0.0999997H25.422V9.55C26.052 8.57 26.9153 7.81167 28.012 7.275C29.132 6.73833 30.3803 6.47 31.757 6.47ZM62.1247 15.675C62.1247 16.2817 62.0897 16.9233 62.0197 17.6H46.6897C46.8064 19.49 47.448 20.9717 48.6147 22.045C49.8047 23.095 51.2397 23.62 52.9197 23.62C54.2964 23.62 55.4397 23.305 56.3497 22.675C57.283 22.0217 57.9364 21.1583 58.3097 20.085H61.7397C61.2264 21.9283 60.1997 23.4333 58.6597 24.6C57.1197 25.7433 55.2064 26.315 52.9197 26.315C51.0997 26.315 49.4664 25.9067 48.0197 25.09C46.5964 24.2733 45.4764 23.1183 44.6597 21.625C43.843 20.1083 43.4347 18.3583 43.4347 16.375C43.4347 14.3917 43.8314 12.6533 44.6247 11.16C45.418 9.66667 46.5264 8.52333 47.9497 7.73C49.3964 6.91333 51.053 6.505 52.9197 6.505C54.7397 6.505 56.3497 6.90167 57.7497 7.695C59.1497 8.48833 60.223 9.585 60.9697 10.985C61.7397 12.3617 62.1247 13.925 62.1247 15.675ZM58.8347 15.01C58.8347 13.7967 58.5664 12.7583 58.0297 11.895C57.493 11.0083 56.758 10.3433 55.8247 9.9C54.9147 9.43333 53.8997 9.2 52.7797 9.2C51.1697 9.2 49.793 9.71333 48.6497 10.74C47.5297 11.7667 46.888 13.19 46.7247 15.01H58.8347ZM69.5138 0.0999997V26H66.3288V0.0999997H69.5138ZM91.2521 8.745C91.2521 10.775 90.5521 12.4667 89.1521 13.82C87.7754 15.15 85.6637 15.815 82.8171 15.815H78.1271V26H74.9421V1.605H82.8171C85.5704 1.605 87.6587 2.27 89.0821 3.6C90.5287 4.93 91.2521 6.645 91.2521 8.745ZM82.8171 13.19C84.5904 13.19 85.8971 12.805 86.7371 12.035C87.5771 11.265 87.9971 10.1683 87.9971 8.745C87.9971 5.735 86.2704 4.23 82.8171 4.23H78.1271V13.19H82.8171ZM112.711 15.675C112.711 16.2817 112.676 16.9233 112.606 17.6H97.2756C97.3923 19.49 98.034 20.9717 99.2006 22.045C100.391 23.095 101.826 23.62 103.506 23.62C104.882 23.62 106.026 23.305 106.936 22.675C107.869 22.0217 108.522 21.1583 108.896 20.085H112.326C111.812 21.9283 110.786 23.4333 109.246 24.6C107.706 25.7433 105.792 26.315 103.506 26.315C101.686 26.315 100.052 25.9067 98.6056 25.09C97.1823 24.2733 96.0623 23.1183 95.2456 21.625C94.429 20.1083 94.0206 18.3583 94.0206 16.375C94.0206 14.3917 94.4173 12.6533 95.2106 11.16C96.004 9.66667 97.1123 8.52333 98.5356 7.73C99.9823 6.91333 101.639 6.505 103.506 6.505C105.326 6.505 106.936 6.90167 108.336 7.695C109.736 8.48833 110.809 9.585 111.556 10.985C112.326 12.3617 112.711 13.925 112.711 15.675ZM109.421 15.01C109.421 13.7967 109.152 12.7583 108.616 11.895C108.079 11.0083 107.344 10.3433 106.411 9.9C105.501 9.43333 104.486 9.2 103.366 9.2C101.756 9.2 100.379 9.71333 99.2356 10.74C98.1156 11.7667 97.474 13.19 97.3106 15.01H109.421ZM120.1 9.935C120.66 8.83833 121.453 7.98667 122.48 7.38C123.53 6.77333 124.801 6.47 126.295 6.47V9.76H125.455C121.885 9.76 120.1 11.6967 120.1 15.57V26H116.915V6.82H120.1V9.935Z" fill="black"/>
</svg>
